<svg width="24" height="24" viewBox="0 0 24 24" fill="none" xmlns="http://www.w3.org/2000/svg">
<path fill-rule="evenodd" clip-rule="evenodd" d="M4.50001 9.75C4.49931 8.35484 4.98483 7.00304 5.87305 5.92714C6.76127 4.85124 7.99667 4.11851 9.36672 3.85499C10.7368 3.59147 12.1558 3.81363 13.3798 4.48326C14.6038 5.15289 15.5561 6.22813 16.073 7.524C16.6467 7.45814 17.2279 7.52565 17.7712 7.72128C18.3145 7.91691 18.8053 8.23537 19.2053 8.65184C19.6053 9.06831 19.9037 9.57153 20.0773 10.1223C20.2509 10.673 20.2949 11.2564 20.206 11.827C21.0736 12.3146 21.7551 13.076 22.1439 13.9921C22.5327 14.9082 22.6068 15.9274 22.3546 16.8901C22.1025 17.8528 21.5383 18.7048 20.7504 19.3128C19.9625 19.9207 18.9952 20.2503 18 20.25H6.75001C5.55568 20.2506 4.39685 19.8439 3.4648 19.0971C2.53274 18.3503 1.88318 17.308 1.62333 16.1423C1.36348 14.9765 1.50886 13.757 2.03549 12.6851C2.56212 11.6131 3.43851 10.7528 4.52001 10.246C4.50659 10.081 4.49992 9.91554 4.50001 9.75Z" fill="url(#paint0_linear_8_2)"/>
<defs>
<linearGradient id="paint0_linear_8_2" x1="11.9995" y1="3.74698" x2="11.9995" y2="20.25" gradientUnits="userSpaceOnUse">
<stop offset="0.536458" stop-color="#65DAE9"/>
<stop offset="1" stop-color="#306DB3"/>
</linearGradient>
</defs>
</svg>
