<svg width="20" height="20" viewBox="0 0 20 20" fill="none" xmlns="http://www.w3.org/2000/svg">
<path d="M14.5 5.25H5.5V14.25H14.5V5.25Z" fill="url(#paint0_linear_2_2)"/>
<path fill-rule="evenodd" clip-rule="evenodd" d="M6.25 0C6.44891 0 6.63968 0.0790175 6.78033 0.21967C6.92098 0.360322 7 0.551088 7 0.75V1.5H9.25V0.75C9.25 0.551088 9.32902 0.360322 9.46967 0.21967C9.61032 0.0790175 9.80109 0 10 0C10.1989 0 10.3897 0.0790175 10.5303 0.21967C10.671 0.360322 10.75 0.551088 10.75 0.75V1.5H13V0.75C13 0.551088 13.079 0.360322 13.2197 0.21967C13.3603 0.0790175 13.5511 0 13.75 0C13.9489 0 14.1397 0.0790175 14.2803 0.21967C14.421 0.360322 14.5 0.551088 14.5 0.75V1.5H15.25C16.0456 1.5 16.8087 1.81607 17.3713 2.37868C17.9339 2.94129 18.25 3.70435 18.25 4.5V5.25H19C19.1989 5.25 19.3897 5.32902 19.5303 5.46967C19.671 5.61032 19.75 5.80109 19.75 6C19.75 6.19891 19.671 6.38968 19.5303 6.53033C19.3897 6.67098 19.1989 6.75 19 6.75H18.25V9H19C19.1989 9 19.3897 9.07902 19.5303 9.21967C19.671 9.36032 19.75 9.55109 19.75 9.75C19.75 9.94891 19.671 10.1397 19.5303 10.2803C19.3897 10.421 19.1989 10.5 19 10.5H18.25V12.75H19C19.1989 12.75 19.3897 12.829 19.5303 12.9697C19.671 13.1103 19.75 13.3011 19.75 13.5C19.75 13.6989 19.671 13.8897 19.5303 14.0303C19.3897 14.171 19.1989 14.25 19 14.25H18.25V15C18.25 15.7956 17.9339 16.5587 17.3713 17.1213C16.8087 17.6839 16.0456 18 15.25 18H14.5V18.75C14.5 18.9489 14.421 19.1397 14.2803 19.2803C14.1397 19.421 13.9489 19.5 13.75 19.5C13.5511 19.5 13.3603 19.421 13.2197 19.2803C13.079 19.1397 13 18.9489 13 18.75V18H10.75V18.75C10.75 18.9489 10.671 19.1397 10.5303 19.2803C10.3897 19.421 10.1989 19.5 10 19.5C9.80109 19.5 9.61032 19.421 9.46967 19.2803C9.32902 19.1397 9.25 18.9489 9.25 18.75V18H7V18.75C7 18.9489 6.92098 19.1397 6.78033 19.2803C6.63968 19.421 6.44891 19.5 6.25 19.5C6.05109 19.5 5.86032 19.421 5.71967 19.2803C5.57902 19.1397 5.5 18.9489 5.5 18.75V18H4.75C3.95435 18 3.19129 17.6839 2.62868 17.1213C2.06607 16.5587 1.75 15.7956 1.75 15V14.25H1C0.801088 14.25 0.610322 14.171 0.46967 14.0303C0.329018 13.8897 0.25 13.6989 0.25 13.5C0.25 13.3011 0.329018 13.1103 0.46967 12.9697C0.610322 12.829 0.801088 12.75 1 12.75H1.75V10.5H1C0.801088 10.5 0.610322 10.421 0.46967 10.2803C0.329018 10.1397 0.25 9.94891 0.25 9.75C0.25 9.55109 0.329018 9.36032 0.46967 9.21967C0.610322 9.07902 0.801088 9 1 9H1.75V6.75H1C0.801088 6.75 0.610322 6.67098 0.46967 6.53033C0.329018 6.38968 0.25 6.19891 0.25 6C0.25 5.80109 0.329018 5.61032 0.46967 5.46967C0.610322 5.32902 0.801088 5.25 1 5.25H1.75V4.5C1.75 3.70435 2.06607 2.94129 2.62868 2.37868C3.19129 1.81607 3.95435 1.5 4.75 1.5H5.5V0.75C5.5 0.551088 5.57902 0.360322 5.71967 0.21967C5.86032 0.0790175 6.05109 0 6.25 0ZM4 4.5C4 4.30109 4.07902 4.11032 4.21967 3.96967C4.36032 3.82902 4.55109 3.75 4.75 3.75H15.25C15.4489 3.75 15.6397 3.82902 15.7803 3.96967C15.921 4.11032 16 4.30109 16 4.5V15C16 15.1989 15.921 15.3897 15.7803 15.5303C15.6397 15.671 15.4489 15.75 15.25 15.75H4.75C4.55109 15.75 4.36032 15.671 4.21967 15.5303C4.07902 15.3897 4 15.1989 4 15V4.5Z" fill="url(#paint1_linear_2_2)"/>
<defs>
<linearGradient id="paint0_linear_2_2" x1="10" y1="5.25" x2="10" y2="14.25" gradientUnits="userSpaceOnUse">
<stop offset="0.526042" stop-color="#65DAE9"/>
<stop offset="1" stop-color="#306DB3"/>
</linearGradient>
<linearGradient id="paint1_linear_2_2" x1="10" y1="0" x2="10" y2="19.5" gradientUnits="userSpaceOnUse">
<stop offset="0.526042" stop-color="#65DAE9"/>
<stop offset="1" stop-color="#306DB3"/>
</linearGradient>
</defs>
</svg>
