<svg width="24" height="24" viewBox="0 0 24 24" fill="none" xmlns="http://www.w3.org/2000/svg">
<path fill-rule="evenodd" clip-rule="evenodd" d="M2.25 5.25C2.25 4.45435 2.56607 3.69129 3.12868 3.12868C3.69129 2.56607 4.45435 2.25 5.25 2.25H18.75C19.5456 2.25 20.3087 2.56607 20.8713 3.12868C21.4339 3.69129 21.75 4.45435 21.75 5.25V15C21.75 15.7956 21.4339 16.5587 20.8713 17.1213C20.3087 17.6839 19.5456 18 18.75 18H15.75V18.257C15.75 18.854 15.987 19.427 16.409 19.848L17.03 20.47C17.1348 20.5749 17.2061 20.7085 17.235 20.8539C17.2638 20.9993 17.249 21.15 17.1923 21.2869C17.1356 21.4239 17.0395 21.541 16.9163 21.6234C16.7931 21.7058 16.6482 21.7499 16.5 21.75H7.5C7.35176 21.7499 7.20688 21.7058 7.08367 21.6234C6.96045 21.541 6.86442 21.4239 6.80771 21.2869C6.751 21.15 6.73615 20.9993 6.76503 20.8539C6.79392 20.7085 6.86524 20.5749 6.97 20.47L7.591 19.848C8.01271 19.4263 8.24974 18.8544 8.25 18.258V18H5.25C4.45435 18 3.69129 17.6839 3.12868 17.1213C2.56607 16.5587 2.25 15.7956 2.25 15V5.25ZM3.75 5.25V12.75C3.75 13.1478 3.90804 13.5294 4.18934 13.8107C4.47064 14.092 4.85218 14.25 5.25 14.25H18.75C19.1478 14.25 19.5294 14.092 19.8107 13.8107C20.092 13.5294 20.25 13.1478 20.25 12.75V5.25C20.25 4.85218 20.092 4.47064 19.8107 4.18934C19.5294 3.90804 19.1478 3.75 18.75 3.75H5.25C4.85218 3.75 4.47064 3.90804 4.18934 4.18934C3.90804 4.47064 3.75 4.85218 3.75 5.25Z" fill="url(#paint0_linear_42_14)"/>
<defs>
<linearGradient id="paint0_linear_42_14" x1="12" y1="2.25" x2="12" y2="21.75" gradientUnits="userSpaceOnUse">
<stop offset="0.463542" stop-color="#65DAE9"/>
<stop offset="1" stop-color="#306DB3"/>
</linearGradient>
</defs>
</svg>
