<svg width="24" height="24" viewBox="0 0 24 24" fill="none" xmlns="http://www.w3.org/2000/svg">
<path fill-rule="evenodd" clip-rule="evenodd" d="M5.625 1.5C4.589 1.5 3.75 2.34 3.75 3.375V20.625C3.75 21.66 4.59 22.5 5.625 22.5H18.375C19.41 22.5 20.25 21.66 20.25 20.625V12.75C20.25 11.7554 19.8549 10.8016 19.1517 10.0983C18.4484 9.39509 17.4946 9 16.5 9H14.625C14.1277 9 13.6508 8.80246 13.2992 8.45083C12.9475 8.0992 12.75 7.62228 12.75 7.125V5.25C12.75 4.25544 12.3549 3.30161 11.6517 2.59835C10.9484 1.89509 9.99456 1.5 9 1.5H5.625ZM7.5 15C7.5 14.8011 7.57902 14.6103 7.71967 14.4697C7.86032 14.329 8.05109 14.25 8.25 14.25H15.75C15.9489 14.25 16.1397 14.329 16.2803 14.4697C16.421 14.6103 16.5 14.8011 16.5 15C16.5 15.1989 16.421 15.3897 16.2803 15.5303C16.1397 15.671 15.9489 15.75 15.75 15.75H8.25C8.05109 15.75 7.86032 15.671 7.71967 15.5303C7.57902 15.3897 7.5 15.1989 7.5 15ZM8.25 17.25C8.05109 17.25 7.86032 17.329 7.71967 17.4697C7.57902 17.6103 7.5 17.8011 7.5 18C7.5 18.1989 7.57902 18.3897 7.71967 18.5303C7.86032 18.671 8.05109 18.75 8.25 18.75H12C12.1989 18.75 12.3897 18.671 12.5303 18.5303C12.671 18.3897 12.75 18.1989 12.75 18C12.75 17.8011 12.671 17.6103 12.5303 17.4697C12.3897 17.329 12.1989 17.25 12 17.25H8.25Z" fill="url(#paint0_linear_1_11)"/>
<path d="M12.971 1.81599C13.7975 2.76896 14.2518 3.98854 14.25 5.24999V7.12499C14.25 7.33199 14.418 7.49999 14.625 7.49999H16.5C17.7615 7.49824 18.981 7.95248 19.934 8.77899C19.494 7.1057 18.6175 5.57929 17.3941 4.35588C16.1707 3.13247 14.6443 2.25596 12.971 1.81599Z" fill="#65DAE9"/>
<defs>
<linearGradient id="paint0_linear_1_11" x1="12" y1="1.5" x2="12" y2="22.5" gradientUnits="userSpaceOnUse">
<stop offset="0.557292" stop-color="#65DAE9"/>
<stop offset="1" stop-color="#306DB3"/>
</linearGradient>
</defs>
</svg>
